# xmcd CD database file
#
# Track frame offsets:
#	150
#	23263
#	82797
#	211714
#
# Disc length: 4303 seconds
#
# Revision: 2
# Processed by: cddbd v1.5.2PL0 Copyright (c) Steve Scherf et al.
# Submitted via: CDex 1.51
#
DISCID=1910cd04
DTITLE=Various Artist - The Best QAWWALI  (Songs of The Divine - The Splendor of Sufi Devotions) cd2
DYEAR=2006
DGENRE=Chants Soufis
TTITLE0=Nusrat Fateh Ali Khan - Kise Da Yaar Na Wichhre  [1992 EMI Pakistan]
TTITLE1=The Sabri Brothers - Taj Dar-e-Haram  [1971 EMI Pakistan] 
TTITLE2=Nusrat Fateh Ali Khan - Haq Ali Ali Moula Ali Ali  [1978 EMI Pakistan]
TTITLE3=Aziz Mian - Allah Hi Jane Kaun Bashar Hai  [1976 EMI Pakistan]
EXTD=YEAR: 2006
EXTT0=
EXTT1=
EXTT2=
EXTT3=
PLAYORDER=
